# xmcd
#
# Track frame offsets: 
#        150
#        19705
#        51387
#        73617
#        94735
#        115617
#        134592
#        157662
#        179935
#        196057
#
# Disc length: 2984 seconds
#
# Revision: 2
# Processed by: cddbd v1.5.2PL0 Copyright (c) Steve Scherf et al.
# Submitted via: ExactAudioCopy v0.99pb4
#
DISCID=860ba60a
DTITLE=Booker T. Laury - Nothin' But The Blues
DYEAR=1994
DGENRE=Blues
TTITLE0=The Slop Jar Story
TTITLE1=Introduction To The Blues - That's All Right For You
TTITLE2=Early In The Morning
TTITLE3=Woke Up This Morning
TTITLE4=DB Blues
TTITLE5=Disco Strut
TTITLE6=Sweet Root Man
TTITLE7=Booker's Boogie
TTITLE8=Blues With A Feeling
TTITLE9=Blues On The Prowl
EXTD=
EXTT0=
EXTT1=
EXTT2=
EXTT3=
EXTT4=
EXTT5=
EXTT6=
EXTT7=
EXTT8=
EXTT9=
PLAYORDER=
